<?xml version="1.0" standalone="no"?>
<!DOCTYPE svg PUBLIC "-//W3C//DTD SVG 20010904//EN"
 "http://www.w3.org/TR/2001/REC-SVG-20010904/DTD/svg10.dtd">
<svg version="1.0" xmlns="http://www.w3.org/2000/svg"
 width="400.000000pt" height="400.000000pt" viewBox="0 0 400.000000 400.000000"
 preserveAspectRatio="xMidYMid meet">
<metadata>
Created by potrace 1.14, written by Peter Selinger 2001-2017
</metadata>
<g transform="translate(0.000000,400.000000) scale(0.100000,-0.100000)"
fill="#000000" stroke="none">
<path d="M379 3956 c-2 -2 -19 -6 -37 -9 -18 -3 -56 -17 -84 -32 -53 -28 -148
-110 -148 -128 0 -6 -6 -18 -14 -26 -8 -9 -23 -43 -35 -76 -20 -60 -20 -73
-21 -1681 0 -1430 2 -1627 15 -1673 34 -112 105 -195 214 -249 l75 -37 1650 0
c908 0 1660 3 1671 7 132 44 230 138 273 263 21 60 21 66 21 1681 1 1756 4
1666 -51 1762 -37 64 -111 130 -184 164 l-69 33 -1636 3 c-899 1 -1637 0
-1640 -2z"/>
</g>
</svg>
